<?xml version="1.0" encoding="utf-8"?>
<!-- Generator: Adobe Illustrator 20.1.0, SVG Export Plug-In . SVG Version: 6.00 Build 0)  -->
<svg version="1.1" id="Слой_1" xmlns="http://www.w3.org/2000/svg" xmlns:xlink="http://www.w3.org/1999/xlink" x="0px" y="0px"
	 viewBox="0 0 70.9 70.9" style="enable-background:new 0 0 70.9 70.9;" xml:space="preserve">
<style type="text/css">
	.st0{filter:url(#filter-1);}
	.st1{fill:#FC4457;}
	.st2{filter:url(#filter-3);}
	.st3{fill:#FFFFFF;}
	.st4{filter:url(#filter-5);}
	.st5{filter:url(#filter-7);}
</style>
<filter  filterUnits="objectBoundingBox" height="200%" id="filter-7" width="200%" x="-50%" y="-50%">
	<feOffset  dx="0" dy="1" in="SourceAlpha" result="shadowOffsetOuter1"></feOffset>
	<feGaussianBlur  in="shadowOffsetOuter1" result="shadowBlurOuter1" stdDeviation="1"></feGaussianBlur>
	
		<feColorMatrix  in="shadowBlurOuter1" result="shadowMatrixOuter1" type="matrix" values="0 0 0 0 0   0 0 0 0 0   0 0 0 0 0  0 0 0 0.35 0">
		</feColorMatrix>
	<feMerge>
		<feMergeNode  in="shadowMatrixOuter1"></feMergeNode>
		<feMergeNode  in="SourceGraphic"></feMergeNode>
	</feMerge>
</filter>
<filter  filterUnits="objectBoundingBox" height="200%" id="filter-5" width="200%" x="-50%" y="-50%">
	<feOffset  dx="0" dy="1" in="SourceAlpha" result="shadowOffsetOuter1"></feOffset>
	<feGaussianBlur  in="shadowOffsetOuter1" result="shadowBlurOuter1" stdDeviation="1"></feGaussianBlur>
	
		<feColorMatrix  in="shadowBlurOuter1" result="shadowMatrixOuter1" type="matrix" values="0 0 0 0 0   0 0 0 0 0   0 0 0 0 0  0 0 0 0.35 0">
		</feColorMatrix>
	<feMerge>
		<feMergeNode  in="shadowMatrixOuter1"></feMergeNode>
		<feMergeNode  in="SourceGraphic"></feMergeNode>
	</feMerge>
</filter>
<filter  filterUnits="objectBoundingBox" height="200%" id="filter-3" width="200%" x="-50%" y="-50%">
	<feOffset  dx="0" dy="1" in="SourceAlpha" result="shadowOffsetOuter1"></feOffset>
	<feGaussianBlur  in="shadowOffsetOuter1" result="shadowBlurOuter1" stdDeviation="1"></feGaussianBlur>
	
		<feColorMatrix  in="shadowBlurOuter1" result="shadowMatrixOuter1" type="matrix" values="0 0 0 0 0   0 0 0 0 0   0 0 0 0 0  0 0 0 0.35 0">
		</feColorMatrix>
	<feMerge>
		<feMergeNode  in="shadowMatrixOuter1"></feMergeNode>
		<feMergeNode  in="SourceGraphic"></feMergeNode>
	</feMerge>
</filter>
<filter  filterUnits="objectBoundingBox" height="200%" id="filter-1" width="200%" x="-50%" y="-50%">
	<feOffset  dx="0" dy="1" in="SourceAlpha" result="shadowOffsetOuter1"></feOffset>
	<feGaussianBlur  in="shadowOffsetOuter1" result="shadowBlurOuter1" stdDeviation="1"></feGaussianBlur>
	
		<feColorMatrix  in="shadowBlurOuter1" result="shadowMatrixOuter1" type="matrix" values="0 0 0 0 0   0 0 0 0 0   0 0 0 0 0  0 0 0 0.35 0">
		</feColorMatrix>
	<feMerge>
		<feMergeNode  in="shadowMatrixOuter1"></feMergeNode>
		<feMergeNode  in="SourceGraphic"></feMergeNode>
	</feMerge>
</filter>
<g id="Pin-Copy-4" class="st0">
	<g>
		<path class="st1" d="M19.5,18.6c-6.5,6.5-8.3,15.9-5.5,24c6,17.3,21.8,27.3,21.8,27.3s15.6-9.9,21.6-27c0-0.1,0.1-0.1,0.1-0.2
			c2.8-8.2,1-17.5-5.4-24C43.1,9.6,28.5,9.6,19.5,18.6z"/>
	</g>
	<g id="svgCluster1_1_">
		<path class="st1" d="M19.5,18.6c-6.5,6.5-8.3,15.9-5.5,24c6,17.3,21.8,27.3,21.8,27.3s15.6-9.9,21.6-27c0-0.1,0.1-0.1,0.1-0.2
			c2.8-8.2,1-17.5-5.4-24C43.1,9.6,28.5,9.6,19.5,18.6z"/>
	</g>
</g>
<g id="Pin-Copy-3" class="st2">
	<g>
		<path class="st3" d="M21.6,20.7c-5.6,5.6-7.2,13.7-4.8,20.7C22,56.3,35.8,64.8,35.8,64.8s13.6-8.5,18.8-23.3
			c0-0.1,0.1-0.1,0.1-0.2c2.4-7.1,0.9-15.1-4.7-20.7C42.1,12.9,29.4,12.9,21.6,20.7z"/>
	</g>
</g>
<g id="Pin-Copy-6" class="st4">
	<g>
		<path class="st3" d="M23.1,22.1c-5.1,5-6.5,12.3-4.3,18.6c4.7,13.5,17,21.2,17,21.2s12.2-7.7,16.9-21c0,0,0-0.1,0-0.2
			c2.2-6.3,0.8-13.6-4.3-18.6C41.5,15.1,30.1,15.1,23.1,22.1z"/>
	</g>
</g>
<g id="Pin-Copy-5" class="st5">
	<g>
		<path class="st3" d="M24.5,23.5C20,28,18.7,34.4,20.6,40c4.1,12,15.1,18.8,15.1,18.8S46.6,52,50.8,40.2c0,0,0-0.1,0-0.1
			c2-5.6,0.7-12.1-3.8-16.6C40.9,17.3,30.7,17.3,24.5,23.5z"/>
	</g>
</g>
</svg>
